<svg width="28" height="36" viewBox="0 0 28 36" version="1.1" xmlns="http://www.w3.org/2000/svg" xmlns:xlink="http://www.w3.org/1999/xlink"><use xlink:href="#a" transform="translate(3 1)" fill="#DDDBDB"/><defs><path id="a" d="M0 0v-.75h-2.086L-.478.578 0 0zm0 34l-.389-.641-2.296 1.391H0V34zm3.5-6.145l-.743.104.005.037.01.037.728-.178zm2.847-3.437l-.333.673.873.43.194-.952-.734-.15zm3.262-2.405l-.064.747.032.003h.032v-.75zm14.35-8.593l-.744-.084.745.084zm-2.85-3.222h-.75v.833l.828-.087-.078-.746zM-.478.578c5.696 4.705 9.96 10.36 10.704 16.047.731 5.581-1.902 11.454-10.615 16.734L.39 34.64c9.041-5.48 12.157-11.857 11.325-18.21C10.895 10.182 6.282 4.216.478-.58L-.478.579zM0 34.75c7.82 0 13.436-2.164 17.015-5.515 3.583-3.357 5.049-7.837 4.68-12.297C20.957 8.028 12.925-.75 0-.75v1.5c12.19 0 19.53 8.223 20.2 16.312.334 4.04-.988 8.06-4.21 11.078C12.76 31.164 7.551 33.25 0 33.25v1.5zm4.243-6.998c-.189-1.355.245-2.035.662-2.362.494-.387 1.007-.35 1.11-.3l.664-1.344c-.745-.368-1.873-.185-2.7.464-.905.71-1.471 1.958-1.222 3.749l1.486-.207zM7.08 24.57c.143-.699.907-1.942 2.464-1.808l.128-1.495c-2.623-.225-3.837 1.907-4.061 3.002l1.47.3zm-.966 3.88c-.571.028-1.044-.058-1.37-.214-.315-.15-.464-.342-.516-.557l-1.458.355c.182.747.703 1.259 1.329 1.557.613.291 1.35.394 2.092.356l-.077-1.498zm3.494-5.686c.216 0 .39.01.57.033l.192-1.488a6.32 6.32 0 0 0-.762-.045v1.5zm15.096-9.26c.127-1.126-.148-2.2-.81-2.975-.674-.79-1.69-1.199-2.864-1.075l.156 1.491c.716-.075 1.234.168 1.567.557.345.405.55 1.042.46 1.835l1.491.168zM21.05 16.91c1.732-.42 3.424-1.36 3.655-3.405l-1.49-.168c-.121 1.071-.97 1.739-2.519 2.115l.354 1.458zm.81-6.71c0-1.556-1.763-3.605-4.56-2.832l.4 1.446c1.822-.504 2.66.8 2.66 1.385h1.5z"/></defs></svg>